<mxfile host="app.diagrams.net" modified="2024-05-18T21:39:06.508Z" agent="Mozilla/5.0 (Windows NT 10.0; Win64; x64) AppleWebKit/537.36 (KHTML, like Gecko) Chrome/125.0.0.0 Safari/537.36" etag="KeBUOEwbxf89o_ME_zXX" version="24.4.4" type="github">
  <diagram name="Page-1" id="j-7ZPfe5WQysFXB74jFQ">
    <mxGraphModel dx="1434" dy="754" grid="1" gridSize="10" guides="1" tooltips="1" connect="1" arrows="1" fold="1" page="1" pageScale="1" pageWidth="850" pageHeight="1100" math="0" shadow="0">
      <root>
        <mxCell id="0" />
        <mxCell id="1" parent="0" />
        <mxCell id="4Tplo5pRTbdHGuXoDYvk-2" value="RockBottomGames Diagram" style="text;html=1;align=center;verticalAlign=middle;whiteSpace=wrap;rounded=0;fontSize=30;fontStyle=3" vertex="1" parent="1">
          <mxGeometry x="280" y="20" width="290" height="100" as="geometry" />
        </mxCell>
        <mxCell id="4Tplo5pRTbdHGuXoDYvk-5" style="edgeStyle=orthogonalEdgeStyle;rounded=0;orthogonalLoop=1;jettySize=auto;html=1;entryX=0.5;entryY=0;entryDx=0;entryDy=0;exitX=0;exitY=0.5;exitDx=0;exitDy=0;" edge="1" parent="1" source="4Tplo5pRTbdHGuXoDYvk-18" target="4Tplo5pRTbdHGuXoDYvk-7">
          <mxGeometry relative="1" as="geometry">
            <mxPoint x="70" y="230" as="targetPoint" />
            <mxPoint x="308" y="160" as="sourcePoint" />
          </mxGeometry>
        </mxCell>
        <mxCell id="4Tplo5pRTbdHGuXoDYvk-8" style="edgeStyle=orthogonalEdgeStyle;rounded=0;orthogonalLoop=1;jettySize=auto;html=1;" edge="1" parent="1" source="4Tplo5pRTbdHGuXoDYvk-18" target="4Tplo5pRTbdHGuXoDYvk-9">
          <mxGeometry relative="1" as="geometry">
            <mxPoint x="780" y="320" as="targetPoint" />
            <mxPoint x="543" y="160" as="sourcePoint" />
          </mxGeometry>
        </mxCell>
        <mxCell id="4Tplo5pRTbdHGuXoDYvk-10" style="edgeStyle=orthogonalEdgeStyle;rounded=0;orthogonalLoop=1;jettySize=auto;html=1;exitX=0.5;exitY=1;exitDx=0;exitDy=0;" edge="1" parent="1" source="4Tplo5pRTbdHGuXoDYvk-18" target="4Tplo5pRTbdHGuXoDYvk-11">
          <mxGeometry relative="1" as="geometry">
            <mxPoint x="425.5" y="350" as="targetPoint" />
            <mxPoint x="425.5" y="190" as="sourcePoint" />
          </mxGeometry>
        </mxCell>
        <mxCell id="4Tplo5pRTbdHGuXoDYvk-12" style="edgeStyle=orthogonalEdgeStyle;rounded=0;orthogonalLoop=1;jettySize=auto;html=1;" edge="1" parent="1" source="4Tplo5pRTbdHGuXoDYvk-7" target="4Tplo5pRTbdHGuXoDYvk-13">
          <mxGeometry relative="1" as="geometry">
            <mxPoint x="40" y="370" as="targetPoint" />
          </mxGeometry>
        </mxCell>
        <mxCell id="4Tplo5pRTbdHGuXoDYvk-15" style="edgeStyle=orthogonalEdgeStyle;rounded=0;orthogonalLoop=1;jettySize=auto;html=1;" edge="1" parent="1" source="4Tplo5pRTbdHGuXoDYvk-7" target="4Tplo5pRTbdHGuXoDYvk-16">
          <mxGeometry relative="1" as="geometry">
            <mxPoint x="290" y="390" as="targetPoint" />
          </mxGeometry>
        </mxCell>
        <mxCell id="4Tplo5pRTbdHGuXoDYvk-7" value="Admin Pages" style="whiteSpace=wrap;html=1;aspect=fixed;" vertex="1" parent="1">
          <mxGeometry x="150" y="230" width="80" height="80" as="geometry" />
        </mxCell>
        <mxCell id="4Tplo5pRTbdHGuXoDYvk-20" style="edgeStyle=orthogonalEdgeStyle;rounded=0;orthogonalLoop=1;jettySize=auto;html=1;" edge="1" parent="1" source="4Tplo5pRTbdHGuXoDYvk-9" target="4Tplo5pRTbdHGuXoDYvk-21">
          <mxGeometry relative="1" as="geometry">
            <mxPoint x="800" y="430" as="targetPoint" />
          </mxGeometry>
        </mxCell>
        <mxCell id="4Tplo5pRTbdHGuXoDYvk-22" style="edgeStyle=orthogonalEdgeStyle;rounded=0;orthogonalLoop=1;jettySize=auto;html=1;" edge="1" parent="1" source="4Tplo5pRTbdHGuXoDYvk-9" target="4Tplo5pRTbdHGuXoDYvk-23">
          <mxGeometry relative="1" as="geometry">
            <mxPoint x="570" y="430" as="targetPoint" />
          </mxGeometry>
        </mxCell>
        <mxCell id="4Tplo5pRTbdHGuXoDYvk-9" value="Reg/Log" style="whiteSpace=wrap;html=1;aspect=fixed;" vertex="1" parent="1">
          <mxGeometry x="620" y="230" width="80" height="80" as="geometry" />
        </mxCell>
        <mxCell id="4Tplo5pRTbdHGuXoDYvk-26" style="edgeStyle=orthogonalEdgeStyle;rounded=0;orthogonalLoop=1;jettySize=auto;html=1;exitX=1;exitY=0.5;exitDx=0;exitDy=0;" edge="1" parent="1" source="4Tplo5pRTbdHGuXoDYvk-11" target="4Tplo5pRTbdHGuXoDYvk-27">
          <mxGeometry relative="1" as="geometry">
            <mxPoint x="760" y="540" as="targetPoint" />
            <mxPoint x="510" y="480" as="sourcePoint" />
          </mxGeometry>
        </mxCell>
        <mxCell id="4Tplo5pRTbdHGuXoDYvk-28" style="edgeStyle=orthogonalEdgeStyle;rounded=0;orthogonalLoop=1;jettySize=auto;html=1;" edge="1" parent="1" source="4Tplo5pRTbdHGuXoDYvk-11" target="4Tplo5pRTbdHGuXoDYvk-29">
          <mxGeometry relative="1" as="geometry">
            <mxPoint x="70" y="560" as="targetPoint" />
          </mxGeometry>
        </mxCell>
        <mxCell id="4Tplo5pRTbdHGuXoDYvk-30" style="edgeStyle=orthogonalEdgeStyle;rounded=0;orthogonalLoop=1;jettySize=auto;html=1;" edge="1" parent="1" source="4Tplo5pRTbdHGuXoDYvk-11" target="4Tplo5pRTbdHGuXoDYvk-31">
          <mxGeometry relative="1" as="geometry">
            <mxPoint x="260" y="590" as="targetPoint" />
          </mxGeometry>
        </mxCell>
        <mxCell id="4Tplo5pRTbdHGuXoDYvk-32" style="edgeStyle=orthogonalEdgeStyle;rounded=0;orthogonalLoop=1;jettySize=auto;html=1;" edge="1" parent="1" source="4Tplo5pRTbdHGuXoDYvk-11" target="4Tplo5pRTbdHGuXoDYvk-37">
          <mxGeometry relative="1" as="geometry">
            <mxPoint x="550" y="560" as="targetPoint" />
          </mxGeometry>
        </mxCell>
        <mxCell id="4Tplo5pRTbdHGuXoDYvk-11" value="User Pages" style="whiteSpace=wrap;html=1;aspect=fixed;" vertex="1" parent="1">
          <mxGeometry x="385.25" y="440" width="80" height="80" as="geometry" />
        </mxCell>
        <mxCell id="4Tplo5pRTbdHGuXoDYvk-13" value="User Table" style="rounded=1;whiteSpace=wrap;html=1;" vertex="1" parent="1">
          <mxGeometry x="20" y="350" width="120" height="60" as="geometry" />
        </mxCell>
        <mxCell id="4Tplo5pRTbdHGuXoDYvk-16" value="Update User Data" style="rounded=1;whiteSpace=wrap;html=1;" vertex="1" parent="1">
          <mxGeometry x="233" y="350" width="120" height="60" as="geometry" />
        </mxCell>
        <mxCell id="4Tplo5pRTbdHGuXoDYvk-18" value="Master Page Layout" style="shape=parallelogram;perimeter=parallelogramPerimeter;whiteSpace=wrap;html=1;fixedSize=1;" vertex="1" parent="1">
          <mxGeometry x="353" y="120" width="144.5" height="70" as="geometry" />
        </mxCell>
        <mxCell id="4Tplo5pRTbdHGuXoDYvk-21" value="Register" style="rounded=1;whiteSpace=wrap;html=1;" vertex="1" parent="1">
          <mxGeometry x="710" y="350" width="120" height="60" as="geometry" />
        </mxCell>
        <mxCell id="4Tplo5pRTbdHGuXoDYvk-23" value="Log in" style="rounded=1;whiteSpace=wrap;html=1;" vertex="1" parent="1">
          <mxGeometry x="490" y="350" width="120" height="60" as="geometry" />
        </mxCell>
        <mxCell id="4Tplo5pRTbdHGuXoDYvk-27" value="Games History" style="rounded=1;whiteSpace=wrap;html=1;" vertex="1" parent="1">
          <mxGeometry x="710" y="562" width="120" height="60" as="geometry" />
        </mxCell>
        <mxCell id="4Tplo5pRTbdHGuXoDYvk-29" value="Contact" style="rounded=1;whiteSpace=wrap;html=1;" vertex="1" parent="1">
          <mxGeometry x="20" y="560" width="120" height="60" as="geometry" />
        </mxCell>
        <mxCell id="4Tplo5pRTbdHGuXoDYvk-31" value="About" style="rounded=1;whiteSpace=wrap;html=1;" vertex="1" parent="1">
          <mxGeometry x="233" y="560" width="120" height="60" as="geometry" />
        </mxCell>
        <mxCell id="4Tplo5pRTbdHGuXoDYvk-46" style="edgeStyle=orthogonalEdgeStyle;rounded=0;orthogonalLoop=1;jettySize=auto;html=1;" edge="1" parent="1" source="4Tplo5pRTbdHGuXoDYvk-36">
          <mxGeometry relative="1" as="geometry">
            <mxPoint x="490" y="710" as="targetPoint" />
          </mxGeometry>
        </mxCell>
        <mxCell id="4Tplo5pRTbdHGuXoDYvk-36" value="Games Page" style="rounded=1;whiteSpace=wrap;html=1;" vertex="1" parent="1">
          <mxGeometry x="70" y="820" width="120" height="60" as="geometry" />
        </mxCell>
        <mxCell id="4Tplo5pRTbdHGuXoDYvk-37" value="Home Page" style="shape=hexagon;perimeter=hexagonPerimeter2;whiteSpace=wrap;html=1;fixedSize=1;" vertex="1" parent="1">
          <mxGeometry x="490" y="552" width="120" height="80" as="geometry" />
        </mxCell>
      </root>
    </mxGraphModel>
  </diagram>
</mxfile>
